<svg xmlns="http://www.w3.org/2000/svg" viewBox="0 0 1000 600">
  <!-- 背景和光線效果 -->
  <defs>
    <linearGradient id="room-gradient" x1="0%" y1="0%" x2="100%" y2="100%">
      <stop offset="0%" style="stop-color:#d9d0c4;stop-opacity:1" />
      <stop offset="100%" style="stop-color:#f0e6da;stop-opacity:1" />
    </linearGradient>
    <linearGradient id="floor-gradient" x1="0%" y1="0%" x2="100%" y2="0%">
      <stop offset="0%" style="stop-color:#d4cbc0;stop-opacity:0.7" />
      <stop offset="100%" style="stop-color:#eee5d9;stop-opacity:0.9" />
    </linearGradient>
    <linearGradient id="sunlight" x1="100%" y1="0%" x2="0%" y2="100%">
      <stop offset="0%" style="stop-color:#fff5e6;stop-opacity:0.7" />
      <stop offset="100%" style="stop-color:#fff5e6;stop-opacity:0" />
    </linearGradient>
    <radialGradient id="screen-glow" cx="50%" cy="50%" r="50%" fx="50%" fy="50%">
      <stop offset="0%" style="stop-color:#7fcdff;stop-opacity:0.6" />
      <stop offset="100%" style="stop-color:#5a8a9e;stop-opacity:0" />
    </radialGradient>
    <filter id="glow" x="-20%" y="-20%" width="140%" height="140%">
      <feGaussianBlur stdDeviation="8" result="blur" />
      <feComposite in="SourceGraphic" in2="blur" operator="over" />
    </filter>
  </defs>
  
  <!-- 房間背景 -->
  <rect width="1000" height="600" fill="url(#room-gradient)" />
  
  <!-- 窗戶光線 -->
  <polygon points="600,0 1000,0 1000,600 800,600" fill="url(#sunlight)" />
  
  <!-- 地板反光 -->
  <rect x="0" y="450" width="1000" height="150" fill="url(#floor-gradient)" opacity="0.6" />
  
  <!-- 天花板智能系統 -->
  <g stroke="#c9b8a8" stroke-width="1" opacity="0.5">
    <line x1="0" y1="50" x2="1000" y2="50" />
    <line x1="100" y1="40" x2="950" y2="40" />
    <line x1="150" y1="30" x2="900" y2="30" />
    <line x1="200" y1="20" x2="850" y2="20" />
    <line x1="0" y1="10" x2="1000" y2="10" />
  </g>
  
  <!-- 智能天花板照明系統 -->
  <g id="ceiling-tech">
    <!-- 嵌入式燈光 -->
    <circle cx="200" cy="30" r="8" fill="#fffaf0" opacity="0.8" filter="url(#glow)" />
    <circle cx="400" cy="30" r="8" fill="#fffaf0" opacity="0.8" filter="url(#glow)" />
    <circle cx="600" cy="30" r="8" fill="#fffaf0" opacity="0.8" filter="url(#glow)" />
    <circle cx="800" cy="30" r="8" fill="#fffaf0" opacity="0.8" filter="url(#glow)" />
    
    <!-- 智能系統面板 -->
    <rect x="250" y="15" width="60" height="20" rx="2" ry="2" fill="#e0e0e0" />
    <rect x="255" y="20" width="50" height="10" rx="1" ry="1" fill="#f7f7f7" />
    <circle cx="270" cy="25" r="3" fill="#7fcdff" opacity="0.8" />
    <circle cx="290" cy="25" r="3" fill="#7fcdff" opacity="0.8" />
    
    <rect x="650" y="15" width="60" height="20" rx="2" ry="2" fill="#e0e0e0" />
    <rect x="655" y="20" width="50" height="10" rx="1" ry="1" fill="#f7f7f7" />
    <circle cx="670" cy="25" r="3" fill="#7fcdff" opacity="0.8" />
    <circle cx="690" cy="25" r="3" fill="#7fcdff" opacity="0.8" />
  </g>
  
  <!-- 藍色數字屏幕 - 更復雜的全息投影屏幕 -->
  <rect x="250" y="100" width="200" height="250" rx="5" ry="5" fill="#5a8a9e" opacity="0.9" />
  <rect x="260" y="110" width="180" height="230" rx="2" ry="2" fill="#6a9aae" />
  
  <!-- 全息投影藍光邊框效果 -->
  <rect x="245" y="95" width="210" height="260" rx="7" ry="7" stroke="#7fcdff" stroke-width="2" fill="none" opacity="0.7" />
  <rect x="240" y="90" width="220" height="270" rx="10" ry="10" stroke="#7fcdff" stroke-width="1" fill="none" opacity="0.4" />
  
  <!-- 屏幕藍光光暈 -->
  <rect x="250" y="100" width="200" height="250" rx="5" ry="5" fill="url(#screen-glow)" opacity="0.3" />
  
  <!-- 屏幕上的圖表和未來UI元素 -->
  <g stroke="#ffffff" stroke-width="1" fill="none">
    <!-- 網格背景 -->
    <pattern id="smallGrid" width="10" height="10" patternUnits="userSpaceOnUse">
      <path d="M 10 0 L 0 0 0 10" fill="none" stroke="#a0e8ff" stroke-width="0.5" opacity="0.3" />
    </pattern>
    <rect x="270" y="120" width="160" height="210" fill="url(#smallGrid)" />
    
    <!-- 數據線條 -->
    <line x1="280" y1="150" x2="420" y2="150" stroke="#ffffff" stroke-width="1.5" />
    <line x1="280" y1="170" x2="380" y2="170" stroke="#ffffff" stroke-width="1.5" />
    <line x1="280" y1="190" x2="400" y2="190" stroke="#ffffff" stroke-width="1.5" />
    <line x1="280" y1="210" x2="390" y2="210" stroke="#ffffff" stroke-width="1.5" />
    
    <!-- 數字藍圖 -->
    <rect x="290" y="230" width="100" height="80" stroke="#ffffff" stroke-width="1.5" fill="none" />
    <line x1="290" y1="240" x2="390" y2="240" stroke="#ffffff" stroke-width="0.7" />
    <line x1="290" y1="250" x2="390" y2="250" stroke="#ffffff" stroke-width="0.7" />
    <line x1="290" y1="260" x2="390" y2="260" stroke="#ffffff" stroke-width="0.7" />
    <line x1="290" y1="270" x2="390" y2="270" stroke="#ffffff" stroke-width="0.7" />
    <line x1="290" y1="280" x2="390" y2="280" stroke="#ffffff" stroke-width="0.7" />
    <line x1="290" y1="290" x2="390" y2="290" stroke="#ffffff" stroke-width="0.7" />
    <line x1="290" y1="300" x2="390" y2="300" stroke="#ffffff" stroke-width="0.7" />
    
    <line x1="300" y1="230" x2="300" y2="310" stroke="#ffffff" stroke-width="0.7" />
    <line x1="310" y1="230" x2="310" y2="310" stroke="#ffffff" stroke-width="0.7" />
    <line x1="320" y1="230" x2="320" y2="310" stroke="#ffffff" stroke-width="0.7" />
    <line x1="330" y1="230" x2="330" y2="310" stroke="#ffffff" stroke-width="0.7" />
    <line x1="340" y1="230" x2="340" y2="310" stroke="#ffffff" stroke-width="0.7" />
    <line x1="350" y1="230" x2="350" y2="310" stroke="#ffffff" stroke-width="0.7" />
    <line x1="360" y1="230" x2="360" y2="310" stroke="#ffffff" stroke-width="0.7" />
    <line x1="370" y1="230" x2="370" y2="310" stroke="#ffffff" stroke-width="0.7" />
    <line x1="380" y1="230" x2="380" y2="310" stroke="#ffffff" stroke-width="0.7" />
    
    <!-- 圓形數據顯示 -->
    <circle cx="350" cy="180" r="30" stroke="#ffffff" stroke-width="2" fill="none" />
    <circle cx="350" cy="180" r="25" stroke="#a0e8ff" stroke-width="1" fill="none" />
    <circle cx="350" cy="180" r="20" stroke="#a0e8ff" stroke-width="0.7" fill="none" />
    <circle cx="350" cy="180" r="15" stroke="#a0e8ff" stroke-width="0.5" fill="none" />
    <circle cx="350" cy="180" r="10" stroke="#a0e8ff" stroke-width="0.3" fill="none" />
    
    <!-- 數據點 -->
    <circle cx="350" cy="150" r="3" fill="#ffffff" />
    <circle cx="320" cy="170" r="3" fill="#ffffff" />
    <circle cx="380" cy="190" r="3" fill="#ffffff" />
    <circle cx="335" cy="210" r="3" fill="#ffffff" />
    
    <!-- 連接線 -->
    <line x1="350" y1="150" x2="320" y2="170" stroke="#a0e8ff" stroke-width="1" />
    <line x1="320" y1="170" x2="380" y2="190" stroke="#a0e8ff" stroke-width="1" />
    <line x1="380" y1="190" x2="335" y2="210" stroke="#a0e8ff" stroke-width="1" />
  </g>
  
  <!-- 桌子 -->
  <rect x="450" y="400" width="400" height="20" fill="#c9b8a8" />
  <rect x="470" y="420" width="360" height="10" fill="#b9a898" />
  <rect x="480" y="430" width="340" height="70" fill="#d9c8b8" opacity="0.5" />
  
  <!-- 椅子 -->
  <g id="chair1">
    <rect x="550" y="420" width="60" height="10" fill="#a99888" />
    <rect x="560" y="430" width="40" height="50" fill="#b9a898" />
    <rect x="570" y="480" width="5" height="20" fill="#a99888" />
    <rect x="595" y="480" width="5" height="20" fill="#a99888" />
  </g>
  
  <g id="chair2">
    <rect x="700" y="420" width="60" height="10" fill="#a99888" />
    <rect x="710" y="430" width="40" height="50" fill="#b9a898" />
    <rect x="720" y="480" width="5" height="20" fill="#a99888" />
    <rect x="745" y="480" width="5" height="20" fill="#a99888" />
  </g>
  
  <!-- 電腦螢幕 -->
  <g id="computer1">
    <rect x="500" y="350" width="80" height="50" rx="2" ry="2" fill="#d4cbc0" />
    <rect x="505" y="355" width="70" height="40" rx="1" ry="1" fill="#e9e0d4" />
    <rect x="535" y="400" width="10" height="20" fill="#d4cbc0" />
    <rect x="525" y="420" width="30" height="3" fill="#c4bbb0" />
  </g>
  
  <g id="computer2">
    <rect x="700" y="350" width="80" height="50" rx="2" ry="2" fill="#d4cbc0" />
    <rect x="705" y="355" width="70" height="40" rx="1" ry="1" fill="#e9e0d4" />
    <rect x="735" y="400" width="10" height="20" fill="#d4cbc0" />
    <rect x="725" y="420" width="30" height="3" fill="#c4bbb0" />
  </g>
  
  <!-- 站立的人 -->
  <g id="standing-person">
    <ellipse cx="780" cy="320" rx="20" ry="25" fill="#e9c8af" />
    <rect x="775" y="345" width="10" height="60" fill="#d6c0a8" />
    <rect x="775" y="370" rx="2" ry="2" width="50" height="8" fill="#d6c0a8" />
    <rect x="775" y="405" width="10" height="45" fill="#d6c0a8" />
    <rect x="770" y="350" width="20" height="60" fill="#d6c0a8" opacity="0.6" />
  </g>
  
  <!-- 坐著的人 -->
  <g id="sitting-person">
    <ellipse cx="580" cy="350" rx="20" ry="25" fill="#e9c8af" />
    <rect x="575" y="375" width="10" height="30" fill="#d6c0a8" />
    <rect x="575" y="385" rx="2" ry="2" width="40" height="8" fill="#d6c0a8" />
    <rect x="570" y="405" width="20" height="30" fill="#d6c0a8" opacity="0.6" />
  </g>
  
  <!-- 機器人 -->
  <g id="robot">
    <!-- 頭部 -->
    <circle cx="150" cy="270" r="30" fill="#f7f7f7" stroke="#e0e0e0" stroke-width="2" />
    <circle cx="135" cy="265" r="8" fill="#ffffff" stroke="#ff6b6b" stroke-width="2" />
    <circle cx="165" cy="265" r="8" fill="#ffffff" stroke="#ff6b6b" stroke-width="2" />
    
    <!-- 身體 -->
    <ellipse cx="150" cy="350" rx="35" ry="50" fill="#f7f7f7" stroke="#e0e0e0" stroke-width="2" />
    <rect x="145" y="300" width="10" height="20" fill="#e0e0e0" />
    
    <!-- 胳膊 -->
    <path d="M115,320 Q100,350 110,380" stroke="#e0e0e0" stroke-width="8" fill="none" />
    <path d="M185,320 Q200,350 190,390" stroke="#e0e0e0" stroke-width="8" fill="none" />
    <circle cx="110" cy="380" r="10" fill="#f7f7f7" stroke="#e0e0e0" stroke-width="2" />
    <circle cx="190" cy="390" r="10" fill="#f7f7f7" stroke="#e0e0e0" stroke-width="2" />
    
    <!-- 腿部 -->
    <path d="M135,400 L125,480" stroke="#e0e0e0" stroke-width="12" fill="none" />
    <path d="M165,400 L175,480" stroke="#e0e0e0" stroke-width="12" fill="none" />
    <ellipse cx="125" cy="490" rx="15" ry="10" fill="#d0d0d0" />
    <ellipse cx="175" cy="490" rx="15" ry="10" fill="#d0d0d0" />
    
    <!-- 機器人關節 -->
    <circle cx="115" cy="320" r="6" fill="#ff6b6b" />
    <circle cx="185" cy="320" r="6" fill="#ff6b6b" />
    <circle cx="135" cy="400" r="6" fill="#ff6b6b" />
    <circle cx="165" cy="400" r="6" fill="#ff6b6b" />
    <circle cx="125" cy="440" r="6" fill="#ff6b6b" />
    <circle cx="175" cy="440" r="6" fill="#ff6b6b" />
  </g>
  
  <!-- 機器人反光 -->
  <ellipse cx="150" cy="520" rx="25" ry="10" fill="#e0e0e0" opacity="0.3" />
  
  <!-- 人影反光 -->
  <ellipse cx="580" cy="520" rx="30" ry="10" fill="#d6c0a8" opacity="0.3" />
  <ellipse cx="780" cy="520" rx="30" ry="10" fill="#d6c0a8" opacity="0.3" />
  
  <!-- 未來科技牆壁元素 -->
  <g id="tech-wall-elements">
    <!-- 左牆智能面板 -->
    <rect x="20" y="180" width="80" height="120" rx="5" ry="5" fill="#e9e0d4" stroke="#d4cbc0" stroke-width="1" />
    <rect x="25" y="185" width="70" height="110" rx="3" ry="3" fill="#f0e6da" />
    
    <!-- 面板上的觸控界面 -->
    <g fill="none" stroke="#7fcdff" stroke-width="0.8" opacity="0.7">
      <circle cx="60" cy="210" r="15" />
      <circle cx="60" cy="210" r="10" />
      <circle cx="60" cy="210" r="5" />
    </g>
    
    <rect x="35" y="240" width="50" height="5" rx="1" ry="1" fill="#7fcdff" opacity="0.5" />
    <rect x="35" y="250" width="40" height="5" rx="1" ry="1" fill="#7fcdff" opacity="0.5" />
    <rect x="35" y="260" width="45" height="5" rx="1" ry="1" fill="#7fcdff" opacity="0.5" />
    
    <circle cx="40" cy="280" r="5" fill="#7fcdff" opacity="0.6" />
    <circle cx="60" cy="280" r="5" fill="#ff6b6b" opacity="0.6" />
    <circle cx="80" cy="280" r="5" fill="#a0e8ff" opacity="0.6" />
    
    <!-- 牆上的光纖線路 -->
    <path d="M130,50 C120,100 130,150 120,200 C110,250 130,300 120,350 C110,400 130,450 120,500" 
          stroke="#7fcdff" stroke-width="1" fill="none" opacity="0.3" />
    <path d="M140,50 C130,100 140,150 130,200 C120,250 140,300 130,350 C120,400 140,450 130,500" 
          stroke="#7fcdff" stroke-width="1" fill="none" opacity="0.3" />
    
    <circle cx="130" cy="150" r="3" fill="#7fcdff" opacity="0.8" />
    <circle cx="120" cy="300" r="3" fill="#7fcdff" opacity="0.8" />
    <circle cx="130" cy="450" r="3" fill="#7fcdff" opacity="0.8" />
    
    <!-- 右牆數據顯示 -->
    <rect x="850" y="150" width="120" height="80" rx="5" ry="5" fill="#e9e0d4" opacity="0.8" />
    <rect x="855" y="155" width="110" height="70" rx="3" ry="3" fill="#f0e6da" opacity="0.9" />
    
    <line x1="865" y1="175" x2="955" y2="175" stroke="#7fcdff" stroke-width="1" opacity="0.8" />
    <line x1="865" y1="185" x2="935" y2="185" stroke="#7fcdff" stroke-width="1" opacity="0.8" />
    <line x1="865" y1="195" x2="945" y2="195" stroke="#7fcdff" stroke-width="1" opacity="0.8" />
    <line x1="865" y1="205" x2="925" y2="205" stroke="#7fcdff" stroke-width="1" opacity="0.8" />
    
    <!-- 環境控制顯示 -->
    <rect x="870" y="300" width="80" height="100" rx="5" ry="5" fill="#e9e0d4" opacity="0.8" />
    <rect x="875" y="305" width="70" height="90" rx="3" ry="3" fill="#f0e6da" opacity="0.9" />
    
    <circle cx="910" cy="330" r="12" stroke="#7fcdff" stroke-width="1" fill="none" />
    <path d="M904,330 L916,330" stroke="#7fcdff" stroke-width="1.5" />
    <path d="M910,324 L910,336" stroke="#7fcdff" stroke-width="1.5" />
    
    <rect x="890" y="355" width="40" height="5" rx="1" ry="1" fill="#7fcdff" opacity="0.5" />
    <rect x="890" y="365" width="40" height="5" rx="1" ry="1" fill="#a0e8ff" opacity="0.5" />
    <rect x="890" y="375" width="40" height="5" rx="1" ry="1" fill="#a0e8ff" opacity="0.5" />
  </g>
  
  <!-- 智能地板系統 -->
  <g id="tech-floor" opacity="0.3">
    <line x1="0" y1="500" x2="1000" y2="500" stroke="#c9b8a8" stroke-width="0.5" />
    <line x1="0" y1="450" x2="1000" y2="450" stroke="#c9b8a8" stroke-width="0.5" />
    <line x1="0" y1="400" x2="1000" y2="400" stroke="#c9b8a8" stroke-width="0.5" />
    <line x1="0" y1="350" x2="1000" y2="350" stroke="#c9b8a8" stroke-width="0.5" />
    <line x1="0" y1="300" x2="1000" y2="300" stroke="#c9b8a8" stroke-width="0.5" />
    <line x1="0" y1="250" x2="1000" y2="250" stroke="#c9b8a8" stroke-width="0.5" />
    <line x1="0" y1="200" x2="1000" y2="200" stroke="#c9b8a8" stroke-width="0.5" />
    <line x1="0" y1="150" x2="1000" y2="150" stroke="#c9b8a8" stroke-width="0.5" />
    <line x1="0" y1="100" x2="1000" y2="100" stroke="#c9b8a8" stroke-width="0.5" />
    <line x1="0" y1="50" x2="1000" y2="50" stroke="#c9b8a8" stroke-width="0.5" />
    
    <line x1="100" y1="0" x2="100" y2="600" stroke="#c9b8a8" stroke-width="0.5" />
    <line x1="200" y1="0" x2="200" y2="600" stroke="#c9b8a8" stroke-width="0.5" />
    <line x1="300" y1="0" x2="300" y2="600" stroke="#c9b8a8" stroke-width="0.5" />
    <line x1="400" y1="0" x2="400" y2="600" stroke="#c9b8a8" stroke-width="0.5" />
    <line x1="500" y1="0" x2="500" y2="600" stroke="#c9b8a8" stroke-width="0.5" />
    <line x1="600" y1="0" x2="600" y2="600" stroke="#c9b8a8" stroke-width="0.5" />
    <line x1="700" y1="0" x2="700" y2="600" stroke="#c9b8a8" stroke-width="0.5" />
    <line x1="800" y1="0" x2="800" y2="600" stroke="#c9b8a8" stroke-width="0.5" />
    <line x1="900" y1="0" x2="900" y2="600" stroke="#c9b8a8" stroke-width="0.5" />
  </g>
  
  <!-- 地板互動光點 -->
  <circle cx="150" cy="530" r="10" fill="#a0e8ff" opacity="0.1" />
  <circle cx="350" cy="480" r="15" fill="#a0e8ff" opacity="0.1" />
  <circle cx="550" cy="510" r="12" fill="#a0e8ff" opacity="0.1" />
  <circle cx="750" cy="490" r="15" fill="#a0e8ff" opacity="0.1" />
  
  <!-- 地板上的數據流動效果 -->
  <path d="M0,520 C200,510 400,530 600,510 C800,500 900,520 1000,510" 
        stroke="#7fcdff" stroke-width="1" fill="none" opacity="0.2" stroke-dasharray="5,5" />
  <path d="M0,540 C300,530 500,550 700,530 C800,520 900,540 1000,530" 
        stroke="#7fcdff" stroke-width="1" fill="none" opacity="0.2" stroke-dasharray="5,5" />
</svg>
