<svg xmlns="http://www.w3.org/2000/svg" viewBox="0 0 800 600">
  <!-- 背景 -->
  <rect width="800" height="600" fill="#c9d4c9" />
  
  <!-- 邊框裝飾植物 -->
  <g id="leaves-left">
    <path d="M50,100 C70,120 60,150 40,160 C30,170 10,160 5,140 C0,120 30,90 50,100" fill="#7d9678" />
    <path d="M30,200 C50,220 40,250 20,260 C10,270 0,260 -5,240 C-10,220 10,190 30,200" fill="#7d9678" />
    <path d="M40,300 C60,320 50,350 30,360 C20,370 0,360 -5,340 C-10,320 20,290 40,300" fill="#7d9678" />
    <path d="M60,400 C80,420 70,450 50,460 C40,470 20,460 15,440 C10,420 40,390 60,400" fill="#7d9678" />
  </g>
  
  <g id="leaves-right">
    <path d="M750,100 C730,120 740,150 760,160 C770,170 790,160 795,140 C800,120 770,90 750,100" fill="#7d9678" />
    <path d="M770,200 C750,220 760,250 780,260 C790,270 800,260 805,240 C810,220 790,190 770,200" fill="#7d9678" />
    <path d="M760,300 C740,320 750,350 770,360 C780,370 800,360 805,340 C810,320 780,290 760,300" fill="#7d9678" />
    <path d="M740,400 C720,420 730,450 750,460 C760,470 780,460 785,440 C790,420 760,390 740,400" fill="#7d9678" />
  </g>
  
  <!-- 主板 -->
  <rect x="150" y="100" width="500" height="400" rx="20" ry="20" fill="#f0f0e8" />
  
  <!-- 筆記本電腦 -->
  <g id="laptop">
    <rect x="250" y="180" width="200" height="120" rx="5" ry="5" fill="#4c6647" stroke="#2c3c27" stroke-width="2" />
    <rect x="255" y="185" width="190" height="110" rx="3" ry="3" fill="#f0f0e8" />
    <rect x="240" y="300" width="220" height="10" rx="5" ry="5" fill="#4c6647" />
    <path d="M240,310 C240,320 460,320 460,310 L240,310 Z" fill="#3a4f37" />
  </g>
  
  <!-- UI 元素 -->
  <g id="ui-elements">
    <!-- 卡片1 -->
    <rect x="180" y="150" width="120" height="120" rx="10" ry="10" fill="#e1e5df" />
    <circle cx="210" cy="170" r="8" fill="#7d9678" />
    <circle cx="230" cy="170" r="8" fill="#c19e67" />
    <rect x="190" y="190" width="100" height="5" fill="#ffffff" />
    <rect x="190" y="200" width="80" height="5" fill="#ffffff" />
    <rect x="190" y="210" width="90" height="5" fill="#ffffff" />
    
    <!-- 卡片2 -->
    <rect x="500" y="150" width="120" height="120" rx="10" ry="10" fill="#c9d4c9" />
    <rect x="510" y="170" width="100" height="5" fill="#ffffff" />
    <rect x="510" y="180" width="80" height="5" fill="#ffffff" />
    <rect x="510" y="190" width="90" height="5" fill="#ffffff" />
    <rect x="510" y="200" width="70" height="5" fill="#ffffff" />
    <rect x="510" y="210" width="100" height="5" fill="#ffffff" />
    
    <!-- 圓形UI元素 -->
    <circle cx="560" cy="275" r="40" fill="#c9d4c9" />
    
    <!-- 卡片3 -->
    <rect x="180" y="300" width="120" height="80" rx="10" ry="10" fill="#c9d4c9" />
    <rect x="190" y="320" width="100" height="5" fill="#ffffff" />
    <rect x="190" y="330" width="80" height="5" fill="#ffffff" />
    <rect x="190" y="340" width="90" height="5" fill="#ffffff" />
    
    <!-- 卡片4 -->
    <rect x="500" y="300" width="120" height="80" rx="10" ry="10" fill="#f0f0e8" stroke="#c9d4c9" stroke-width="1" />
    <line x1="510" y1="320" x2="610" y2="320" stroke="#c9d4c9" stroke-width="1" />
    <line x1="510" y1="340" x2="610" y2="340" stroke="#c9d4c9" stroke-width="1" />
    <line x1="530" y1="310" x2="530" y2="370" stroke="#c9d4c9" stroke-width="1" />
    <line x1="560" y1="310" x2="560" y2="370" stroke="#c9d4c9" stroke-width="1" />
    <line x1="590" y1="310" x2="590" y2="370" stroke="#c9d4c9" stroke-width="1" />
    
    <!-- 圖表 -->
    <rect x="320" y="350" width="180" height="100" rx="10" ry="10" fill="#f0f0e8" />
    <rect x="330" y="370" width="160" height="5" fill="#c9d4c9" />
    <rect x="330" y="380" width="140" height="5" fill="#c9d4c9" />
    <rect x="330" y="390" width="160" height="5" fill="#c9d4c9" />
    <circle cx="440" cy="420" r="20" fill="none" stroke="#4c6647" stroke-width="8" />
    <path d="M440,420 L440,420 L440,400 A20,20 0 0,1 458,410 Z" fill="#7d9678" />
  </g>
  
  <!-- 色彩面板 -->
  <g id="color-palette">
    <rect x="180" y="400" width="40" height="20" rx="5" ry="5" fill="#4c6647" />
    <rect x="230" y="400" width="40" height="20" rx="5" ry="5" fill="#7d9678" />
    <rect x="280" y="400" width="40" height="20" rx="5" ry="5" fill="#c19e67" />
    <rect x="330" y="400" width="40" height="20" rx="5" ry="5" fill="#e8d9c5" />
    
    <!-- 按鈕UI元素 -->
    <rect x="500" y="400" width="40" height="20" rx="10" ry="10" fill="#4c6647" />
    <rect x="550" y="400" width="40" height="20" rx="10" ry="10" fill="#e8d9c5" />
    <rect x="500" y="430" width="40" height="20" rx="10" ry="10" fill="#c19e67" />
    <rect x="550" y="430" width="40" height="20" rx="10" ry="10" fill="#e8d9c5" />
    
    <!-- 全球圖標 -->
    <circle cx="620" cy="415" r="15" fill="#e1e5df" />
    <ellipse cx="620" cy="415" rx="15" ry="8" fill="none" stroke="#7d9678" stroke-width="1" />
    <line x1="605" y1="415" x2="635" y2="415" stroke="#7d9678" stroke-width="1" />
    <line x1="620" y1="400" x2="620" y2="430" stroke="#7d9678" stroke-width="1" />
  </g>
</svg>
